<svg xmlns="http://www.w3.org/2000/svg" viewBox="0 0 1200 675" role="img" aria-labelledby="title desc">
  <title id="title">Smart Traffic Light illustration</title>
  <desc id="desc">A smart traffic signal detects cars on a road using digital sensors.</desc>
  <defs>
    <linearGradient id="sky" x1="0" y1="0" x2="1" y2="1">
      <stop offset="0" stop-color="#ECC2FF"/>
      <stop offset="1" stop-color="#FFC2F4"/>
    </linearGradient>
    <filter id="shadow" x="-20%" y="-20%" width="140%" height="140%">
      <feDropShadow dx="0" dy="12" stdDeviation="14" flood-color="#302330" flood-opacity="0.2"/>
    </filter>
  </defs>
  <rect width="1200" height="675" rx="32" fill="url(#sky)"/>
  <circle cx="1030" cy="120" r="62" fill="#FFC2D5" opacity="0.8"/>

  <path d="M0 505L1200 360V675H0z" fill="#403745"/>
  <path d="M0 595L1200 450" stroke="#FFF8FD" stroke-width="14" stroke-dasharray="80 55" opacity="0.9"/>
  <path d="M0 505L1200 360" stroke="#FFC2D5" stroke-width="10"/>

  <g filter="url(#shadow)">
    <rect x="184" y="145" width="34" height="390" rx="12" fill="#70315F"/>
    <rect x="110" y="110" width="182" height="288" rx="30" fill="#302330"/>
    <circle cx="201" cy="178" r="47" fill="#FF6B8A"/>
    <circle cx="201" cy="254" r="47" fill="#FFD36E" opacity="0.35"/>
    <circle cx="201" cy="330" r="47" fill="#70D6A0" opacity="0.35"/>
    <rect x="132" y="555" width="140" height="28" rx="14" fill="#70315F"/>
  </g>

  <g fill="none" stroke="#70315F" stroke-width="8" stroke-linecap="round" opacity="0.75">
    <path d="M330 185q85 55 0 110"/>
    <path d="M365 145q145 95 0 190"/>
    <path d="M405 110q210 130 0 260"/>
  </g>
  <circle cx="310" cy="240" r="17" fill="#70315F"/>

  <g transform="translate(580 360)" filter="url(#shadow)">
    <path d="M45 72l35-58h190l52 58z" fill="#FFF8FD"/>
    <rect x="15" y="70" width="335" height="98" rx="28" fill="#FFC2D5"/>
    <path d="M100 28h145l34 44H73z" fill="#ECC2FF" stroke="#70315F" stroke-width="6"/>
    <rect x="35" y="93" width="62" height="24" rx="10" fill="#FFF"/>
    <rect x="270" y="93" width="62" height="24" rx="10" fill="#FFF"/>
    <circle cx="88" cy="164" r="35" fill="#302330"/>
    <circle cx="88" cy="164" r="15" fill="#ECC2FF"/>
    <circle cx="280" cy="164" r="35" fill="#302330"/>
    <circle cx="280" cy="164" r="15" fill="#ECC2FF"/>
  </g>

  <g transform="translate(910 435) scale(.62)" filter="url(#shadow)">
    <path d="M45 72l35-58h190l52 58z" fill="#FFF8FD"/>
    <rect x="15" y="70" width="335" height="98" rx="28" fill="#FFC2F4"/>
    <path d="M100 28h145l34 44H73z" fill="#ECC2FF" stroke="#70315F" stroke-width="6"/>
    <circle cx="88" cy="164" r="35" fill="#302330"/>
    <circle cx="280" cy="164" r="35" fill="#302330"/>
  </g>

  <g transform="translate(760 120)" filter="url(#shadow)">
    <rect width="310" height="135" rx="24" fill="#FFF8FD"/>
    <text x="32" y="52" fill="#70315F" font-family="Arial, sans-serif" font-size="25" font-weight="700">SMART DETECTION</text>
    <rect x="32" y="76" width="180" height="12" rx="6" fill="#ECC2FF"/>
    <rect x="32" y="101" width="125" height="10" rx="5" fill="#FFC2D5"/>
    <circle cx="260" cy="94" r="26" fill="#70D6A0"/>
    <path d="M248 94l8 8 16-19" fill="none" stroke="#FFF" stroke-width="6" stroke-linecap="round" stroke-linejoin="round"/>
  </g>
</svg>
